<?xml version="1.0" encoding="utf-8"?>
<svg xmlns:mydata="http://www.w3.org/2000/svg" version="1.1" xmlns="http://www.w3.org/2000/svg" xmlns:xlink="http://www.w3.org/1999/xlink" viewBox="100 80 350 310">
<g fill="#040" fill-rule="evenodd" stroke="none" stroke-width="1" stroke-linecap="butt" stroke-linejoin="miter" stroke-miterlimit="10" stroke-dasharray="" stroke-dashoffset="0" font-family="none" font-weight="none" font-size="none" text-anchor="none" style="mix-blend-mode: normal">
<g data-paper-data="{&quot;isGlobalGroup&quot;:true,&quot;bounds&quot;:{&quot;x&quot;:123.4391888648908,&quot;y&quot;:106,&quot;width&quot;:303.12162227021844,&quot;height&quot;:258}}">
<path d="M229.09383,115.26964c-14.10985,5.96797 -26.6049,14.39208 -37.48514,25.27232c-10.88014,10.88014 -19.30423,23.37519 -25.27226,37.48514c-6.1798,14.61058 -9.2697,29.91273 -9.2697,45.90647c0,15.99369 3.0899,31.29643 9.2697,45.90691c2.54889,6.0264 5.54582,11.75796 8.99082,17.19469h10.93095c-4.58584,-6.43032 -8.44138,-13.34024 -11.56662,-20.72975c-5.70203,-13.48048 -8.55305,-27.60443 -8.55305,-42.37186c0,-14.76718 2.85101,-28.89133 8.55305,-42.37245c5.50852,-13.02354 13.28579,-24.55831 23.3318,-34.60447c10.04606,-10.04606 21.58083,-17.82333 34.60432,-23.3318c13.48126,-5.70204 27.60527,-8.55305 42.3723,-8.55305c14.76748,0 28.89162,2.85101 42.37215,8.55305c13.02378,5.50847 24.55865,13.28574 34.60461,23.3318c10.04645,10.04616 17.82416,21.58093 23.33165,34.60447c5.70208,13.48097 8.55312,27.60512 8.55312,42.37245c0,14.76733 -2.85104,28.89162 -8.55312,42.37186c-3.12524,7.39 -6.98018,14.29943 -11.56632,20.72975h10.93095c3.44513,-5.43673 6.44211,-11.1683 8.99095,-17.19469c6.17971,-14.61048 9.26957,-29.91322 9.26957,-45.90691c0,-15.99369 -3.08986,-31.29584 -9.26957,-45.90647c-5.96743,-14.10985 -14.3923,-26.6049 -25.27166,-37.48514c-10.88034,-10.88014 -23.37539,-19.30425 -37.48514,-25.27232c-14.61107,-6.17976 -29.91347,-9.26964 -45.90721,-9.26964c-15.99339,0 -31.29555,3.08989 -45.90617,9.26964zM350.72078,287.03517c1.11005,-0.58967 2.13902,-1.37245 3.08543,-2.35277c1.93853,-2.00782 3.0471,-4.33553 3.32425,-6.97871v-2.70657c-0.29041,-2.82008 -1.49923,-5.25246 -3.62203,-7.3045c-2.39847,-2.32181 -5.25246,-3.44955 -8.55165,-3.39059c-3.30508,0.05749 -6.1178,1.28695 -8.43814,3.68247c-2.31887,2.40584 -3.44513,5.25246 -3.39206,8.55902c0.05602,3.30508 1.28842,6.11485 3.68837,8.43224c0.87271,0.8447 1.80586,1.53019 2.79797,2.05941zM326.23043,287.03517c0.82259,-0.52186 1.598,-1.16017 2.32329,-1.912c2.31887,-2.39995 3.45103,-5.25246 3.39501,-8.55902c-0.06044,-3.30066 -1.28842,-6.11043 -3.68837,-8.43224c-2.39847,-2.31739 -5.25246,-3.45103 -8.55754,-3.39059c-3.30361,0.05749 -6.1119,1.28842 -8.43224,3.68689c-2.32181,2.40142 -3.44955,5.25393 -3.39059,8.5546c0.05602,3.30508 1.284,6.1178 3.68247,8.43224c0.64863,0.62652 1.33117,1.16754 2.04467,1.62011zM296.22669,287.03517c1.29019,-0.77394 2.50004,-1.74099 3.6297,-2.89969c3.32528,-3.40828 4.94259,-7.53152 4.86151,-12.36385l-0.15037,-8.41602l50.97377,-0.89335l-0.17543,-9.91054l-6.37135,0.11322l-0.7017,-40.35608l-9.44204,0.16629l-0.07371,-4.24796l3.15619,-8.55062l-22.65354,0.39434l3.21811,8.44271l0.07076,4.24973l-45.7766,0.79915l-0.06339,-3.54316c-0.04113,-2.35454 -1.13703,-4.38683 -3.2927,-6.07593c-2.14889,-1.69618 -4.72471,-2.51419 -7.71049,-2.46274c-3.14691,0.05322 -5.7295,0.96558 -7.74292,2.7337c-2.01504,1.76296 -3.00465,3.82606 -2.96337,6.18399l0.06339,3.54139l-30.44039,0.52996l-0.22628,-12.74374l-33.97824,0.59497l0.22113,12.74212l13.92543,-0.24353l0.39965,22.99746l-19.34801,0.3395l0.47498,27.26444l6.60766,-0.11204c0,0 0.0429,0.35233 0.13725,1.04961c0.08919,0.7017 0.09258,3.15619 0.01194,7.36936c0.08064,4.8279 1.84536,8.89218 5.28548,12.18547c0.41689,0.39803 0.84411,0.77246 1.28194,1.12184h21.55617c0.58598,-0.47173 1.15295,-0.98917 1.70104,-1.55082c3.32528,-3.40975 4.94421,-7.53447 4.86018,-12.36532l-0.1458,-8.41455l4.00959,-0.07371l0.1458,8.4175c-0.07209,4.83674 1.64974,8.89955 5.17403,12.18989c0.71423,0.66927 1.45323,1.26778 2.21685,1.79701h19.83301c0.91737,-0.63979 1.78713,-1.3813 2.60928,-2.22452c3.32366,-3.41417 4.94244,-7.53447 4.85679,-12.36827l-0.3824,-8.41308l4.24958,-0.07371l-0.08919,8.42045c0.08403,4.83527 1.84698,8.89365 5.28548,12.18547c1.01437,0.97148 2.0914,1.79554 3.23079,2.47365zM316.64096,184.18883c1.24862,-0.73222 2.46333,-0.94833 3.64709,-0.65512c1.18818,0.29159 2.27022,1.4525 3.25201,3.48139c0.97442,2.02875 1.59063,5.63869 1.83681,10.82644l10.61696,-0.18176c-0.0516,-2.98917 -0.35822,-6.95586 -0.91546,-11.90184c-0.56018,-4.9476 -1.86924,-9.99972 -3.92571,-15.15666c-2.05352,-5.15679 -5.16696,-10.0239 -9.34033,-14.59072c-4.17337,-4.57213 -9.81796,-7.97289 -16.93966,-10.20905c-0.33906,-1.41314 -1.31201,-3.04578 -2.91723,-4.90647c-1.60522,-1.85907 -3.71623,-3.39737 -6.33332,-4.60987c-2.61871,-1.21236 -5.77933,-1.86585 -9.47507,-1.95843c-3.69913,-0.09435 -7.81324,0.9243 -12.33731,3.04401c-2.40437,-2.31518 -5.03001,-3.96153 -7.87677,-4.93389c-2.8503,-0.97752 -5.61304,-1.4354 -8.28998,-1.3925c-2.67532,0.04968 -5.22209,0.60529 -7.64194,1.672c-2.4197,1.06509 -4.55488,2.55709 -6.41219,4.47778c-1.85377,1.91907 -3.38189,4.54294 -4.5823,7.86984c-1.20218,3.32366 -1.88295,6.91473 -2.05455,10.7716c-0.16968,3.86202 0.37223,7.82532 1.62247,11.89668c1.25363,4.06782 3.55849,7.80469 6.92313,11.20883c0.96219,0.92946 2.15568,1.73215 3.58429,2.41292c1.42685,0.68431 3.05094,1.13024 4.86357,1.32911c1.80762,0.20756 3.65623,0.13371 5.54095,-0.21095c1.87971,-0.34982 3.75751,-1.16784 5.62159,-2.46098c0.80268,0.92961 1.99971,1.93455 3.59638,3.00804c1.58974,1.07364 3.52931,1.82296 5.82223,2.25857c2.28761,0.43223 4.9218,0.46481 7.90935,0.09774c2.98047,-0.36692 6.34526,-1.44911 10.09068,-3.24464c0.6448,0.933 1.52974,2.01681 2.65645,3.25496c1.12332,1.23992 2.51758,2.20034 4.17941,2.87772c1.66345,0.68254 3.67849,0.92091 6.03347,0.7219c2.35719,-0.1971 5.09325,-1.18833 8.20669,-2.97531c0.77983,-0.48707 1.79111,-1.09413 3.03826,-1.82133z" data-paper-data="{&quot;isPathIcon&quot;:true}"></path></g><g><path d="M187.43296,364c-28.16493,-17.64579 -50.62749,-43.55134 -63.99377,-74.32164h303.12162c-13.36628,30.7703 -35.82817,56.67585 -63.99362,74.32164zM381.99377,319.29439c2.55326,0.02654 4.8736,1.62601 6.24163,3.37879v-3.84316c-1.39309,-0.51596 -3.68837,-1.03192 -5.88046,-1.03192c-2.88937,0 -5.54582,0.92873 -5.57235,4.10113c-0.01327,3.14145 2.59159,4.41366 5.02986,5.60479c2.12722,1.03929 4.12914,2.01666 4.15273,4.1203c0.02654,1.62453 -1.16017,2.45007 -2.88937,2.45007c-2.57832,0 -4.64215,-1.67613 -6.1119,-3.66331v4.02448c1.39309,1.00538 3.63677,1.65107 5.85539,1.65107c3.30066,0 6.52467,-1.44468 6.52467,-5.13305c0,-6.49961 -9.98159,-6.42295 -10.00813,-9.95653c-0.02506,-1.39309 1.49628,-1.70266 2.65792,-1.70266zM163.60413,335.88025c1.21227,-2.99256 1.98606,-12.89749 0,-18.05561h5.08121c-0.79957,2.0889 -1.16069,4.95173 -1.21227,7.81456c0.92855,0.18132 2.14082,0.30958 3.37888,0.30958c1.03178,0 2.06341,-0.07666 3.01778,-0.28304c-0.0516,-2.86283 -0.41277,-5.7522 -1.21221,-7.8411h5.08116c-1.98615,5.15811 -1.21236,15.06305 0,18.05561h-5.08116c0.59321,-1.47122 1.08322,-4.66869 1.18641,-8.12561c-0.90278,-0.17985 -1.88295,-0.25798 -2.86303,-0.25798c-1.28965,0 -2.52771,0.12973 -3.48204,0.30958c0.10316,3.45692 0.59323,6.6028 1.18647,8.07402zM178.77045,335.88025c1.21221,-2.99256 1.986,-12.89749 0,-18.05561h7.17035c2.78573,0 4.43636,0.85059 4.72014,1.00538v3.84316c-1.16061,-2.19209 -3.27575,-3.40385 -4.97797,-3.40385h-2.29557c-0.49016,1.93411 -0.72234,4.25592 -0.74799,6.57626c0.79944,0.12973 1.72802,0.18132 2.6824,0.18132c1.54758,0 3.14676,-0.18132 4.35897,-0.69728v2.94096c-1.23801,-0.48942 -2.86298,-0.69581 -4.41056,-0.69581c-0.92858,0 -1.83136,0.07666 -2.60515,0.17985c0.07739,2.57979 0.36117,5.00333 0.74799,6.68093h2.26992c1.70222,0 3.81736,-1.21324 4.97797,-3.40533v3.84316c-0.28378,0.15479 -1.9344,1.00686 -4.72014,1.00686zM191.69271,317.82464c1.986,5.15811 1.21221,15.06305 0,18.05561h5.08116c-0.90278,-2.19356 -1.54758,-8.15067 -1.03177,-13.18053c0.30958,-1.62453 1.23815,-2.83777 2.99197,-2.83777c1.52178,0 3.35314,0.90366 3.43054,3.92129c0.0516,2.19209 -0.82539,4.5139 -2.91458,4.53896c-1.57338,0 -2.39877,-1.34149 -2.81153,-3.30214l-0.54161,0.10319c0.28378,8.09908 7.45413,11.27149 13.43822,11.27149c0.85118,0 1.65077,-0.05012 2.42442,-0.17985v-3.48198c-1.3412,0.54102 -2.78559,0.799 -4.28157,0.799c-2.88878,0 -5.85495,-1.00538 -7.99574,-2.88789c0.36102,0.07666 0.74799,0.12825 1.16061,0.12825c3.22415,0 5.15856,-2.7847 5.15856,-6.39641c0,-4.53896 -3.04357,-6.5512 -5.93235,-6.5512c-1.52178,0 -2.70819,0.56755 -3.55938,1.46975c0.12884,-0.51596 0.28363,-1.00538 0.46422,-1.46975zM207.01374,320.04327c0,1.31496 0.90278,2.19209 2.21818,2.19209c1.3154,0 2.19238,-0.87713 2.19238,-2.19209c0,-1.31643 -0.87698,-2.21862 -2.19238,-2.21862c-1.3154,0 -2.21818,0.90219 -2.21818,2.21862zM212.27549,322.67318v-3.84316c0.28363,-0.15479 1.9344,-1.00538 4.72014,-1.00538h5.08116c2.78559,0 4.43636,0.85059 4.72014,1.00538v3.84316c-1.16076,-2.19209 -3.27575,-3.40385 -4.97812,-3.40385h-0.20624c-1.39294,5.39103 -0.64495,13.87634 0.46422,16.61092h-5.08116c1.10902,-2.73458 1.85701,-11.21989 0.46422,-16.61092h-0.18059c-1.72802,0 -3.84316,1.21177 -5.00377,3.40385zM230.3305,335.88025c-0.0258,-0.85207 0.0516,-2.21862 0.30958,-3.89475c0.79959,-0.12973 1.72817,-0.20638 2.70819,-0.20638c0.79959,0 1.65077,0.0516 2.42456,0.17985c0.23218,1.67613 0.33537,3.06922 0.30958,3.92129h4.82318c-2.32137,-2.99256 -5.39074,-12.89749 -5.28754,-18.05561h-4.82318c0.10319,5.15811 -2.99197,15.06305 -5.28754,18.05561zM248.6951,335.88025c-5.72596,0 -8.04733,-3.61171 -8.04733,-9.0278c0,-5.41757 2.32137,-9.0278 8.04733,-9.0278c2.78573,0 4.43651,0.85059 4.72014,1.00538v3.84316c-1.16061,-2.19209 -3.27575,-3.40385 -4.97797,-3.40385c-2.70834,0 -3.99794,2.99109 -3.99794,7.58312c0,4.59056 1.2896,7.55658 3.99794,7.55658c0.46422,0 0.95423,-0.07666 1.47019,-0.25798c-0.15479,-2.21715 -0.51596,-4.35911 -1.13496,-5.98365h5.08116c-0.6964,1.80586 -1.05742,4.23086 -1.18641,6.70599v0.33611c-0.77379,0.28304 -2.11499,0.67075 -3.97215,0.67075zM254.44701,317.82464c1.986,5.15811 1.21221,15.06305 0,18.05561h7.17035c2.78573,0 4.43651,-0.85207 4.72014,-1.00686v-3.84316c-1.16061,2.19209 -3.27575,3.40533 -4.97797,3.40533h-2.26978c-0.38697,-1.6776 -0.6706,-4.10113 -0.74799,-6.68093c0.77379,-0.10319 1.67657,-0.17985 2.605,-0.17985c1.54758,0 3.17256,0.20638 4.41071,0.69581v-2.94096c-1.21236,0.51596 -2.81153,0.69728 -4.35911,0.69728c-0.95438,0 -1.88281,-0.0516 -2.6824,-0.18132c0.0258,-2.32034 0.25783,-4.64215 0.74799,-6.57626h2.29557c1.70222,0 3.81736,1.21177 4.97797,3.40385v-3.84316c-0.28363,-0.15479 -1.9344,-1.00538 -4.72014,-1.00538zM277.86696,322.69972c-0.51581,5.02986 0.12899,10.98697 1.03177,13.18053h-5.08131c1.21236,-2.99256 1.98615,-12.89749 0,-18.05561h5.08131c-0.18059,0.46436 -0.33537,0.95379 -0.46436,1.46975c0.85118,-0.90219 2.03774,-1.46975 3.55953,-1.46975c2.88878,0 5.93235,2.01224 5.93235,6.5512c0,3.61171 -1.9344,6.39641 -5.15856,6.39641c-0.6706,0 -1.26395,-0.12825 -1.77976,-0.33464c1.2638,1.21177 2.81139,1.67613 4.33317,1.67613c0.74799,0 1.47033,-0.12825 2.14093,-0.30958v4.07607c-5.77771,0 -9.1565,-2.19356 -9.44028,-10.757l0.54161,-0.10319c0.41277,1.96064 1.23815,3.30214 2.81153,3.30214c2.08919,-0.02506 2.96617,-2.34688 2.91458,-4.53896c-0.07739,-3.01762 -1.90875,-3.92129 -3.43054,-3.92129c-1.75382,0 -2.6824,1.21324 -2.99197,2.83777zM293.26538,335.88025c-0.0258,-0.85207 0.0516,-2.21862 0.30958,-3.89475c0.79959,-0.12973 1.72802,-0.20638 2.70819,-0.20638c0.79959,0 1.65077,0.0516 2.42456,0.17985c0.23218,1.67613 0.33537,3.06922 0.30958,3.92129h4.82318c-2.32137,-2.99256 -5.39074,-12.89749 -5.28754,-18.05561h-4.82333c0.10319,5.15811 -2.99197,15.06305 -5.28754,18.05561zM304.35643,335.88025c1.21206,-2.99256 1.986,-12.89749 0,-18.05561h5.08175c-1.98718,5.15811 -1.21324,15.06305 0,18.05561zM310.46862,335.88025h7.17183c2.7847,0 4.43577,-0.85207 4.71881,-1.00686v-3.84316c-1.16017,2.19209 -3.2756,3.40533 -4.97679,3.40533h-2.29675c-1.39161,-5.39103 -0.64421,-13.87634 0.46436,-16.61092h-5.08146c1.21324,2.99256 1.98718,12.89602 0,18.05561zM332.98654,335.88025h-4.82348c0.10319,-5.15959 -2.99109,-15.06305 -5.28784,-18.05561h4.82348c-0.10319,2.27022 0.77394,8.51184 2.86283,13.6449c2.11543,-5.13305 2.96603,-11.37468 2.88937,-13.6449h4.82348c-0.10319,2.27022 0.77394,8.48531 2.86283,13.61836c2.0889,-5.13305 2.96603,-11.34814 2.86283,-13.61836h4.82348c-2.29528,2.99256 -5.39103,12.89602 -5.28784,18.05561h-4.82348c0.07813,-3.45692 -1.26336,-9.00274 -2.86283,-13.20707c-1.57294,4.20433 -2.93949,9.75015 -2.86283,13.20707zM352.09912,335.88025c-0.02506,-0.85207 0.0516,-2.21862 0.30958,-3.89475c0.799,-0.12973 1.72772,-0.20638 2.70805,-0.20638c0.80047,0 1.65107,0.0516 2.42501,0.17985c0.23144,1.67613 0.33464,3.06922 0.30958,3.92129h4.82348c-2.32181,-2.99256 -5.39103,-12.89749 -5.28784,-18.05561h-4.82348c0.10319,5.15811 -2.99256,15.06305 -5.28784,18.05561zM366.28504,335.88025c0.4909,-1.2383 0.92873,-3.63677 1.11005,-6.37135c-1.44468,-3.12081 -3.97288,-8.69169 -6.26816,-11.68425h4.82348c-0.10319,2.4766 0.82553,6.03524 2.86283,9.51723c2.06383,-3.48198 2.96603,-7.04063 2.88789,-9.51723h4.82348c-2.32034,2.99256 -4.82348,8.56344 -6.26669,11.68425c0.17985,2.73458 0.61915,5.13305 1.10857,6.37135zM230.94951,330.07645c0.46436,-2.4766 1.21236,-5.28784 2.24398,-7.8411c1.05757,2.57979 1.80556,5.39103 2.26992,7.86616c-0.67075,0.10319 -1.39294,0.12973 -2.08934,0.12973c-0.82539,0 -1.67657,-0.0516 -2.42456,-0.15479zM293.88438,330.07645c0.46436,-2.4766 1.21236,-5.28784 2.24398,-7.8411c1.05757,2.57979 1.80556,5.39103 2.26978,7.86616c-0.6706,0.10319 -1.39279,0.12973 -2.08919,0.12973c-0.82539,0 -1.67657,-0.0516 -2.42456,-0.15479zM352.71827,330.07645c0.46436,-2.4766 1.21177,-5.28784 2.24368,-7.8411c1.05845,2.57979 1.80586,5.39103 2.27022,7.86616c-0.67075,0.10319 -1.39309,0.12973 -2.0889,0.12973c-0.82553,0 -1.6776,-0.0516 -2.42501,-0.15479zM211.75953,330.51428c-1.21221,-1.26336 -1.986,-5.39103 0,-7.55658h-5.08116c1.98615,2.16555 1.21236,6.29322 0,7.55658z"></path>

</g>
</g>
</svg>
